# This file uses centimeters as units for non-parametric coordinates.

mtllib flyer3.mtl
g default
v -0.755389 -0.029859 0.755390
v 0.755390 -0.029859 0.755390
v 0.755390 -0.029859 -0.755390
v -0.755389 -0.029859 -0.755390
v -0.755389 -0.024186 0.755390
v 0.755390 -0.024186 0.755390
v 0.755390 -0.024186 -0.755390
v -0.755389 -0.024186 -0.755390
vt 0.972020 0.526347
vt 0.972020 0.502598
vt 0.972155 0.502598
vt 0.972155 0.526347
vt 0.971212 0.526347
vt 0.971212 0.502598
vt 0.971347 0.502598
vt 0.971347 0.526347
vt 0.501912 0.998088
vt 0.501912 0.501912
vt 0.998088 0.501912
vt 0.998088 0.998088
vt 0.996577 0.526347
vt 0.972829 0.526347
vt 0.972829 0.502598
vt 0.996577 0.502598
vt 0.972424 0.526347
vt 0.972424 0.502598
vt 0.972559 0.502598
vt 0.972559 0.526347
vt 0.971751 0.502598
vt 0.971751 0.526347
vt 0.971616 0.526347
vt 0.971616 0.502598
vn 0.000000 1.000000 0.000000
vn 0.000000 1.000000 0.000000
vn 0.000000 1.000000 0.000000
vn 0.000000 1.000000 0.000000
vn 0.000000 -1.000000 0.000000
vn 0.000000 -1.000000 0.000000
vn 0.000000 -1.000000 0.000000
vn 0.000000 -1.000000 0.000000
vn 0.000000 0.000000 1.000000
vn 0.000000 0.000000 1.000000
vn 0.000000 0.000000 1.000000
vn 0.000000 0.000000 1.000000
vn 1.000000 0.000000 0.000000
vn 1.000000 0.000000 0.000000
vn 1.000000 0.000000 0.000000
vn 1.000000 0.000000 0.000000
vn 0.000000 0.000000 -1.000000
vn 0.000000 0.000000 -1.000000
vn 0.000000 0.000000 -1.000000
vn 0.000000 0.000000 -1.000000
vn -1.000000 0.000000 0.000000
vn -1.000000 0.000000 0.000000
vn -1.000000 0.000000 0.000000
vn -1.000000 0.000000 0.000000
s off
g Flyer3
usemtl lambert3SG
f 5/9/1 6/10/2 7/11/3 8/12/4
f 1/13/5 4/14/6 3/15/7 2/16/8
f 1/17/9 2/18/10 6/19/11 5/20/12
f 2/1/13 3/2/14 7/3/15 6/4/16
f 3/21/17 4/22/18 8/23/19 7/24/20
f 4/5/21 1/6/22 5/7/23 8/8/24
