# This file uses centimeters as units for non-parametric coordinates.

mtllib cruisersteering1.mtl
g default
v -1.831820 0.502656 -2.284042
v -2.167795 0.502815 -2.284042
v -2.405478 0.265358 -2.284042
v -2.405638 -0.070617 -2.284042
v -2.168180 -0.308300 -2.284042
v -1.832205 -0.308460 -2.284042
v -1.594522 -0.071003 -2.284042
v -1.594362 0.264972 -2.284042
v -1.871280 0.407517 -2.129896
v -2.128425 0.407639 -2.129896
v -2.310339 0.225897 -2.129896
v -2.310462 -0.031247 -2.129896
v -2.128720 -0.213162 -2.129896
v -1.871575 -0.213284 -2.129896
v -1.689661 -0.031542 -2.129896
v -1.689538 0.225602 -2.129896
v -1.930337 0.265132 -2.026898
v -2.069503 0.265198 -2.026898
v -2.167954 0.166840 -2.026898
v -2.168021 0.027675 -2.026898
v -2.069663 -0.070777 -2.026898
v -1.930497 -0.070843 -2.026898
v -1.832045 0.027515 -2.026898
v -1.831979 0.166680 -2.026898
v -1.831820 0.502656 -2.438256
v -2.167795 0.502815 -2.438256
v -2.405478 0.265358 -2.438256
v -2.405638 -0.070617 -2.438256
v -2.168180 -0.308300 -2.438256
v -1.832205 -0.308460 -2.438256
v -1.594522 -0.071003 -2.438256
v -1.594362 0.264972 -2.438256
v -1.930337 0.265132 -1.924122
v -2.069503 0.265198 -1.924122
v -2.167954 0.166840 -1.924122
v -2.168021 0.027675 -1.924122
v -2.069663 -0.070777 -1.924122
v -1.930497 -0.070843 -1.924122
v -1.832045 0.027515 -1.924122
v -1.831979 0.166680 -1.924122
v -1.930337 0.265132 -1.865365
v -2.069503 0.265198 -1.865365
v -2.000000 0.097178 -1.854730
v -2.167954 0.166840 -1.865365
v -2.168021 0.027675 -1.865365
v -2.069663 -0.070777 -1.865365
v -1.930497 -0.070843 -1.865365
v -1.832045 0.027515 -1.865365
v -1.831979 0.166680 -1.865365
v -1.909426 0.315549 -1.946165
v -2.090366 0.315635 -1.946165
v -2.090366 0.315635 -1.899850
v -1.909426 0.315549 -1.899850
v -2.218371 0.187752 -1.946165
v -2.218371 0.187752 -1.899850
v -2.218457 0.006811 -1.946165
v -2.218457 0.006811 -1.899850
v -2.090574 -0.121194 -1.946165
v -2.090574 -0.121194 -1.899850
v -1.909634 -0.121280 -1.946165
v -1.909634 -0.121280 -1.899850
v -1.781628 0.006603 -1.946165
v -1.781628 0.006603 -1.899850
v -1.781542 0.187544 -1.946165
v -1.781542 0.187544 -1.899850
vt 0.083728 0.455654
vt 0.083728 0.494826
vt 0.065748 0.494826
vt 0.065748 0.455654
vt 0.101700 0.460245
vt 0.101700 0.490225
vt 0.083728 0.522511
vt 0.065748 0.522511
vt 0.083728 0.427943
vt 0.065748 0.427943
vt 0.101700 0.439035
vt 0.113708 0.467114
vt 0.113708 0.483340
vt 0.101700 0.511415
vt 0.125691 0.467114
vt 0.125691 0.483340
vt 0.113708 0.455636
vt 0.125691 0.455636
vt 0.113708 0.494807
vt 0.125691 0.494807
vt 0.046666 0.494800
vt 0.046666 0.455628
vt 0.064646 0.455628
vt 0.064646 0.494800
vt 0.028694 0.490209
vt 0.028694 0.460229
vt 0.046666 0.427943
vt 0.064646 0.427943
vt 0.046666 0.522511
vt 0.064646 0.522511
vt 0.028694 0.511419
vt 0.016685 0.483340
vt 0.016685 0.467114
vt 0.028694 0.439040
vt 0.004703 0.483340
vt 0.004703 0.467114
vt 0.016685 0.494818
vt 0.004703 0.494818
vt 0.016685 0.455647
vt 0.004703 0.455647
vt 0.044133 0.659251
vt 0.044133 0.600395
vt 0.059197 0.600395
vt 0.059197 0.659251
vt 0.044133 0.558759
vt 0.059197 0.558759
vt 0.070415 0.607182
vt 0.070415 0.652449
vt 0.044133 0.700848
vt 0.059197 0.700848
vt 0.040960 0.600356
vt 0.040960 0.659211
vt 0.025895 0.659211
vt 0.025895 0.600356
vt 0.040960 0.700848
vt 0.025895 0.700848
vt 0.014678 0.652425
vt 0.014678 0.607158
vt 0.040960 0.558759
vt 0.025895 0.558759
vt 0.009958 0.159422
vt 0.083982 0.159422
vt 0.083982 0.193399
vt 0.009958 0.193399
vt 0.018633 0.125459
vt 0.075288 0.125459
vt 0.031615 0.102766
vt 0.062276 0.102766
vt 0.031615 0.080122
vt 0.062276 0.080122
vt 0.083982 0.228774
vt 0.009958 0.228774
vt 0.009958 0.194797
vt 0.083982 0.194797
vt 0.075308 0.262737
vt 0.018653 0.262737
vt 0.062326 0.285430
vt 0.031664 0.285430
vt 0.062326 0.308074
vt 0.031664 0.308074
vt 0.898300 0.441362
vt 0.898300 0.518233
vt 0.878624 0.518233
vt 0.878624 0.441362
vt 0.863973 0.509369
vt 0.863973 0.450246
vt 0.898566 0.518233
vt 0.898566 0.441362
vt 0.918242 0.441362
vt 0.918242 0.518233
vt 0.932893 0.450225
vt 0.932893 0.509349
vt 0.080490 0.728844
vt 0.031645 0.777736
vt 0.015772 0.739468
vt 0.042207 0.713008
vt 0.034034 0.779730
vt 0.082879 0.730838
vt 0.098752 0.769105
vt 0.072316 0.795566
vt 0.034034 0.779730
vt 0.082879 0.730838
vt 0.098751 0.769105
vt 0.072317 0.795566
vt 0.080491 0.728867
vt 0.031645 0.777759
vt 0.015772 0.739491
vt 0.042207 0.713031
vt 0.969753 0.310112
vt 0.969767 0.338817
vt 0.935110 0.324481
vt 0.949479 0.359124
vt 0.949446 0.289824
vt 0.980170 0.343121
vt 0.953792 0.369524
vt 0.920774 0.359138
vt 0.953749 0.279421
vt 0.980152 0.305799
vt 0.920741 0.289838
vt 0.900467 0.338850
vt 0.900453 0.310145
vt 0.916470 0.369541
vt 0.890067 0.343164
vt 0.890050 0.305842
vt 0.916428 0.279439
vt 0.887258 0.304634
vt 0.887239 0.344283
vt 0.872869 0.350228
vt 0.872894 0.298676
vt 0.915262 0.372333
vt 0.909304 0.386697
vt 0.915308 0.276611
vt 0.909363 0.262241
vt 0.954912 0.372352
vt 0.960856 0.386722
vt 0.954957 0.276629
vt 0.960915 0.262265
vt 0.982962 0.344329
vt 0.997326 0.350287
vt 0.982981 0.304679
vt 0.997351 0.298735
vn 0.368065 0.887394 0.277598
vn -0.367221 0.887744 0.277598
vn -0.289078 0.698835 0.654266
vn 0.289742 0.698560 0.654266
vn -0.887394 0.368065 0.277598
vn -0.698560 0.289742 0.654266
vn -0.887743 -0.367221 0.277598
vn -0.698835 -0.289078 0.654266
vn -0.368065 -0.887394 0.277598
vn -0.289742 -0.698560 0.654266
vn 0.367221 -0.887743 0.277598
vn 0.289077 -0.698835 0.654266
vn 0.887394 -0.368065 0.277598
vn 0.698559 -0.289742 0.654266
vn 0.887743 0.367221 0.277598
vn 0.698834 0.289078 0.654266
vn -0.277597 0.671079 0.687454
vn 0.278234 0.670815 0.687454
vn -0.670815 0.278235 0.687454
vn -0.671079 -0.277596 0.687454
vn -0.278234 -0.670815 0.687454
vn 0.277597 -0.671080 0.687453
vn 0.670815 -0.278235 0.687454
vn 0.671079 0.277597 0.687454
vn 0.129926 0.313250 0.940741
vn -0.129630 0.313373 0.940741
vn 0.000000 -0.000000 1.000000
vn -0.313249 0.129927 0.940741
vn -0.313373 -0.129629 0.940741
vn -0.129927 -0.313250 0.940741
vn 0.129629 -0.313373 0.940741
vn 0.313250 -0.129927 0.940741
vn 0.313373 0.129629 0.940741
vn 0.383123 0.923698 0.000000
vn -0.382244 0.924062 0.000000
vn -0.923697 0.383123 0.000000
vn -0.924062 -0.382244 0.000000
vn -0.383123 -0.923698 0.000000
vn 0.382244 -0.924061 0.000000
vn 0.923698 -0.383123 0.000000
vn 0.924061 0.382244 0.000000
vn -0.259748 0.627932 -0.733643
vn 0.260344 0.627684 -0.733644
vn -0.627684 0.260345 -0.733644
vn -0.627932 -0.259748 -0.733644
vn -0.260345 -0.627684 -0.733644
vn 0.259748 -0.627932 -0.733643
vn 0.627684 -0.260345 -0.733644
vn 0.627931 0.259748 -0.733644
vn 0.247016 0.595549 -0.764398
vn -0.246450 0.595783 -0.764399
vn -0.336084 0.812471 0.476380
vn 0.336856 0.812152 0.476380
vn -0.595550 0.247016 -0.764397
vn -0.812151 0.336858 0.476380
vn -0.595785 -0.246449 -0.764397
vn -0.812471 -0.336084 0.476380
vn -0.247017 -0.595549 -0.764397
vn -0.336857 -0.812151 0.476380
vn 0.246449 -0.595784 -0.764398
vn 0.336084 -0.812471 0.476380
vn 0.595549 -0.247016 -0.764398
vn 0.812151 -0.336857 0.476380
vn 0.595784 0.246450 -0.764398
vn 0.812471 0.336084 0.476380
s 1
g Steering
usemtl initialShadingGroup
f 1/62/1 2/61/2 10/65/3 9/66/4
f 2/7/2 3/2/5 11/6/6 10/14/3
f 3/2/5 4/1/7 12/5/8 11/6/6
f 4/1/7 5/9/9 13/11/10 12/5/8
f 5/72/9 6/71/11 14/75/12 13/76/10
f 6/27/11 7/22/13 15/26/14 14/34/12
f 7/22/13 8/21/15 16/25/16 15/26/14
f 8/21/15 1/29/1 9/31/4 16/25/16
f 9/66/4 10/65/3 18/67/17 17/68/18
f 10/93/3 11/94/6 19/95/19 18/96/17
f 11/6/6 12/5/8 20/12/20 19/13/19
f 12/97/8 13/98/10 21/99/21 20/100/20
f 13/76/10 14/75/12 22/77/22 21/78/21
f 14/101/12 15/102/14 23/103/23 22/104/22
f 15/26/14 16/25/16 24/32/24 23/33/23
f 16/105/16 9/106/4 17/107/18 24/108/24
f 41/109/25 42/110/26 43/111/27
f 42/110/26 44/112/28 43/111/27
f 44/112/28 45/116/29 43/111/27
f 45/116/29 46/120/30 43/111/27
f 46/120/30 47/121/31 43/111/27
f 47/121/31 48/119/32 43/111/27
f 48/119/32 49/113/33 43/111/27
f 49/113/33 41/109/25 43/111/27
f 2/61/2 1/62/1 25/63/34 26/64/35
f 3/2/5 2/7/2 26/8/35 27/3/36
f 4/1/7 3/2/5 27/3/36 28/4/37
f 5/9/9 4/1/7 28/4/37 29/10/38
f 6/71/11 5/72/9 29/73/38 30/74/39
f 7/22/13 6/27/11 30/28/39 31/23/40
f 8/21/15 7/22/13 31/23/40 32/24/41
f 1/29/1 8/21/15 32/24/41 25/30/34
f 17/68/18 18/67/17 34/69/42 33/70/43
f 18/19/17 19/13/19 35/16/44 34/20/42
f 19/13/19 20/12/20 36/15/45 35/16/44
f 20/12/20 21/17/21 37/18/46 36/15/45
f 21/78/21 22/77/22 38/79/47 37/80/46
f 22/39/22 23/33/23 39/36/48 38/40/47
f 23/33/23 24/32/24 40/35/49 39/36/48
f 24/32/24 17/37/18 33/38/43 40/35/49
f 50/81/50 51/82/51 52/83/52 53/84/53
f 51/49/51 54/41/54 55/44/55 52/50/52
f 54/41/54 56/42/56 57/43/57 55/44/55
f 56/42/56 58/45/58 59/46/59 57/43/57
f 58/87/58 60/88/60 61/89/61 59/90/59
f 60/59/60 62/51/62 63/54/63 61/60/61
f 62/51/62 64/52/64 65/53/65 63/54/63
f 64/52/64 50/55/50 53/56/53 65/53/65
f 33/126/43 34/127/42 51/128/51 50/129/50
f 42/85/26 41/86/25 53/84/53 52/83/52
f 34/127/42 35/130/44 54/131/54 51/128/51
f 44/112/28 42/110/26 52/114/52 55/115/55
f 35/130/44 36/134/45 56/135/56 54/131/54
f 45/47/29 44/48/28 55/44/55 57/43/57
f 36/134/45 37/138/46 58/139/58 56/135/56
f 46/120/30 45/116/29 57/122/57 59/123/59
f 37/138/46 38/140/47 60/141/60 58/139/58
f 47/91/31 46/92/30 59/90/59 61/89/61
f 38/140/47 39/136/48 62/137/62 60/141/60
f 48/119/32 47/121/31 61/124/61 63/125/63
f 39/136/48 40/132/49 64/133/64 62/137/62
f 49/57/33 48/58/32 63/54/63 65/53/65
f 40/132/49 33/126/43 50/129/50 64/133/64
f 41/109/25 49/113/33 65/117/65 53/118/53
