# This file uses centimeters as units for non-parametric coordinates.

mtllib pedestal.mtl
g default
v 9.109313 -4.127270 -11.109314
v -2.000000 -4.127270 -15.710941
v -13.109314 -4.127270 -11.109314
v -17.710941 -4.127270 -0.000000
v -13.109314 -4.127270 11.109313
v -2.000000 -4.127270 15.710943
v 9.109314 -4.127270 11.109314
v 13.710943 -4.127270 -0.000000
v 7.427042 -3.608241 -9.427042
v -2.000000 -3.608241 -13.331849
v -11.427042 -3.608241 -9.427042
v -15.331849 -3.608241 0.000000
v -11.427042 -3.608241 9.427042
v -2.000000 -3.608241 13.331851
v 7.427044 -3.608241 9.427043
v 11.331852 -3.608241 0.000000
v -2.000000 -3.608241 0.000000
v 9.109313 -4.939291 -11.109314
v -2.000000 -4.939291 -15.710941
v -2.000000 -4.939291 -0.000000
v -13.109314 -4.939291 -11.109314
v -17.710941 -4.939291 -0.000000
v -13.109314 -4.939291 11.109313
v -2.000000 -4.939291 15.710943
v 9.109314 -4.939291 11.109314
v 13.710943 -4.939291 -0.000000
vt 0.500000 0.068096
vt 0.500000 0.068096
vt 0.791969 0.862669
vt 0.468822 0.996521
vt 0.995134 0.068096
vt 0.995134 0.068096
vt 0.995134 0.031904
vt 0.468822 0.927318
vt 0.500000 0.031904
vt 0.004866 0.068096
vt 0.004866 0.031904
vt 0.743036 0.813735
vt 0.145675 0.862669
vt 0.500000 0.068096
vt 0.004866 0.068096
vt 0.995134 0.031904
vt 0.194609 0.813735
vt 0.500000 0.031904
vt 0.011823 0.539522
vt 0.900047 0.990220
vt 0.834926 0.963246
vt 0.900047 0.898126
vt 0.965167 0.963246
vt 0.992141 0.898126
vt 0.965167 0.833005
vt 0.900047 0.806031
vt 0.834926 0.833005
vt 0.081026 0.539522
vt 0.145675 0.216374
vt 0.194609 0.265308
vt 0.468822 0.082522
vt 0.468822 0.151725
vt 0.791969 0.216374
vt 0.743036 0.265308
vt 0.925822 0.539522
vt 0.856619 0.539522
vt 0.004866 0.031904
vt 0.500000 0.031904
vt 0.807953 0.898126
vt 0.995134 0.068096
vt 0.995134 0.031904
vt 0.468822 0.539522
vt 0.004866 0.068096
vt 0.004866 0.031904
vt 0.500000 0.068096
vt 0.004866 0.068096
vt 0.004866 0.031904
vt 0.500000 0.031904
vt 0.995134 0.068096
vt 0.995134 0.031904
vn 0.087947 0.973234 -0.212323
vn 0.087947 0.973234 -0.212323
vn 0.087947 0.973234 -0.212323
vn 0.087947 0.973234 -0.212323
vn -0.087947 0.973234 -0.212323
vn -0.087947 0.973234 -0.212323
vn -0.087947 0.973234 -0.212323
vn -0.087947 0.973234 -0.212323
vn -0.212323 0.973234 -0.087947
vn -0.212323 0.973234 -0.087947
vn -0.212323 0.973234 -0.087947
vn -0.212323 0.973234 -0.087947
vn -0.212323 0.973234 0.087947
vn -0.212323 0.973234 0.087947
vn -0.212323 0.973234 0.087947
vn -0.212323 0.973234 0.087947
vn -0.087947 0.973234 0.212323
vn -0.087947 0.973234 0.212323
vn -0.087947 0.973234 0.212323
vn -0.087947 0.973234 0.212323
vn 0.087947 0.973234 0.212323
vn 0.087947 0.973234 0.212323
vn 0.087947 0.973234 0.212323
vn 0.087947 0.973234 0.212323
vn 0.212323 0.973234 0.087947
vn 0.212323 0.973234 0.087947
vn 0.212323 0.973234 0.087947
vn 0.212323 0.973234 0.087947
vn 0.212323 0.973234 -0.087947
vn 0.212323 0.973234 -0.087947
vn 0.212323 0.973234 -0.087947
vn 0.212323 0.973234 -0.087947
vn 0.000000 -1.000000 -0.000000
vn 0.000000 -1.000000 0.000000
vn 0.000000 -1.000000 0.000000
vn 0.000000 -1.000000 0.000000
vn 0.000000 -1.000000 0.000000
vn 0.000000 -1.000000 -0.000000
vn 0.000000 -1.000000 -0.000000
vn 0.000000 -1.000000 0.000000
vn 0.000000 -1.000000 0.000000
vn 0.000000 1.000000 0.000000
vn 0.000000 1.000000 0.000000
vn 0.000000 1.000000 0.000000
vn 0.000000 1.000000 0.000000
vn 0.000000 1.000000 0.000000
vn 0.000000 1.000000 0.000000
vn 0.000000 1.000000 0.000000
vn 0.000000 1.000000 0.000000
vn 0.000000 1.000000 0.000000
vn 0.382683 0.000000 -0.923880
vn 0.382683 0.000000 -0.923880
vn 0.382683 0.000000 -0.923880
vn 0.382683 0.000000 -0.923880
vn -0.382683 0.000000 -0.923880
vn -0.382683 0.000000 -0.923880
vn -0.382683 0.000000 -0.923880
vn -0.382683 0.000000 -0.923880
vn -0.923880 0.000000 -0.382683
vn -0.923880 0.000000 -0.382683
vn -0.923880 0.000000 -0.382683
vn -0.923880 0.000000 -0.382683
vn -0.923880 0.000000 0.382683
vn -0.923880 0.000000 0.382683
vn -0.923880 0.000000 0.382683
vn -0.923880 0.000000 0.382683
vn -0.382684 0.000000 0.923880
vn -0.382684 0.000000 0.923880
vn -0.382684 0.000000 0.923880
vn -0.382684 0.000000 0.923880
vn 0.382683 0.000000 0.923880
vn 0.382683 0.000000 0.923880
vn 0.382683 0.000000 0.923880
vn 0.382683 0.000000 0.923880
vn 0.923880 0.000000 0.382683
vn 0.923880 0.000000 0.382683
vn 0.923880 0.000000 0.382683
vn 0.923880 0.000000 0.382683
vn 0.923880 0.000000 -0.382684
vn 0.923880 0.000000 -0.382684
vn 0.923880 0.000000 -0.382684
vn 0.923880 0.000000 -0.382684
s off
g Pedestal
usemtl lambert19SG
f 1/3/1 2/4/2 10/8/3 9/12/4
f 2/4/5 3/13/6 11/17/7 10/8/8
f 3/13/9 4/19/10 12/28/11 11/17/12
f 4/19/13 5/29/14 13/30/15 12/28/16
f 5/29/17 6/31/18 14/32/19 13/30/20
f 6/31/21 7/33/22 15/34/23 14/32/24
f 7/33/25 8/35/26 16/36/27 15/34/28
f 8/35/29 1/3/30 9/12/31 16/36/32
s 1
f 19/20/33 18/21/34 20/22/35
f 21/23/36 19/20/33 20/22/35
f 22/24/37 21/23/36 20/22/35
f 23/25/38 22/24/37 20/22/35
f 24/26/39 23/25/38 20/22/35
f 25/27/40 24/26/39 20/22/35
f 26/39/41 25/27/40 20/22/35
f 18/21/34 26/39/41 20/22/35
s 2
f 9/12/42 10/8/43 17/42/44
f 10/8/43 11/17/45 17/42/44
f 11/17/45 12/28/46 17/42/44
f 12/28/46 13/30/47 17/42/44
f 13/30/47 14/32/48 17/42/44
f 14/32/48 15/34/49 17/42/44
f 15/34/49 16/36/50 17/42/44
f 16/36/50 9/12/42 17/42/44
s off
f 2/1/51 1/6/52 18/16/53 19/18/54
f 3/43/55 2/1/56 19/18/57 21/44/58
f 4/2/59 3/5/60 21/7/61 22/9/62
f 5/10/63 4/2/64 22/9/65 23/11/66
f 6/45/67 5/46/68 23/47/69 24/48/70
f 7/49/71 6/45/72 24/48/73 25/50/74
f 8/14/75 7/15/76 25/37/77 26/38/78
f 1/40/79 8/14/80 26/38/81 18/41/82
