# This file uses centimeters as units for non-parametric coordinates.

mtllib RoadCone.mtl
g default
v 2.603809 0.805747 -2.603811
v 0.000000 0.805747 -3.682344
v -2.603809 0.805747 -2.603811
v -3.682343 0.805747 0.000000
v -2.603809 0.805747 2.603811
v 0.000000 0.805747 3.682344
v 2.603809 0.805747 2.603811
v 3.682346 0.805747 0.000000
v 0.441147 12.819586 -0.441146
v 0.000000 12.819586 -0.623875
v -0.441147 12.819586 -0.441146
v -0.623875 12.819586 0.000000
v -0.441147 12.819586 0.441146
v 0.000000 12.819586 0.623875
v 0.441147 12.819586 0.441146
v 0.623875 12.819586 0.000000
v 2.831501 0.927338 -2.831502
v 0.000000 0.927338 -4.004350
v 0.000000 12.903740 -0.846743
v 0.598740 12.903740 -0.598738
v -2.831501 0.927338 -2.831502
v -0.598740 12.903740 -0.598738
v -4.004349 0.927338 0.000000
v -0.846745 12.903740 0.000000
v -2.831501 0.927338 2.831502
v -0.598740 12.903740 0.598738
v 0.000000 0.927338 4.004350
v 0.000000 12.903740 0.846743
v 2.831505 0.927338 2.831503
v 0.598740 12.903740 0.598738
v 4.004349 0.927338 0.000000
v 0.846745 12.903740 0.000000
v -4.577457 -0.000000 4.577457
v 4.577457 -0.000000 4.577457
v -4.577457 1.134370 4.577457
v 4.577457 1.134370 4.577457
v -4.577457 1.134370 -4.577457
v 4.577457 1.134370 -4.577457
v -4.577457 -0.000000 -4.577457
v 4.577457 -0.000000 -4.577457
vt 0.049388 0.415086
vt 0.049388 0.861200
vt 0.838014 0.861200
vt 0.162049 0.415086
vt 0.162049 0.861200
vt 0.274710 0.415086
vt 0.274710 0.861200
vt 0.387371 0.415086
vt 0.387371 0.861200
vt 0.500032 0.415086
vt 0.500032 0.861200
vt 0.612693 0.415086
vt 0.612693 0.861200
vt 0.725354 0.415086
vt 0.725354 0.861200
vt 0.838015 0.410557
vt 0.049388 0.858066
vt 0.049388 0.410557
vt 0.162049 0.858066
vt 0.162049 0.410557
vt 0.274710 0.858066
vt 0.274710 0.410557
vt 0.387371 0.858066
vt 0.387371 0.410557
vt 0.500032 0.858066
vt 0.500032 0.410557
vt 0.612693 0.858066
vt 0.612693 0.410557
vt 0.725354 0.858066
vt 0.725354 0.410557
vt 0.950676 0.415086
vt 0.950676 0.858066
vt 0.950676 0.410557
vt 0.838015 0.415086
vt 0.838014 0.858066
vt 0.950676 0.861200
vt 0.049477 0.055353
vt 0.351189 0.055353
vt 0.351189 0.357064
vt 0.049477 0.357064
vt 0.049477 0.055353
vt 0.351189 0.055353
vt 0.351189 0.357064
vt 0.049477 0.357064
vt 0.049477 0.055353
vt 0.351189 0.055353
vt 0.351189 0.357064
vt 0.049477 0.357064
vt 0.049477 0.055353
vt 0.351189 0.055353
vt 0.351189 0.357064
vt 0.049477 0.357064
vt 0.049477 0.055353
vt 0.351189 0.055353
vt 0.351189 0.357064
vt 0.049477 0.357064
vt 0.049477 0.055353
vt 0.351189 0.055353
vt 0.351189 0.357064
vt 0.049477 0.357064
vn 0.371812 0.236663 -0.897634
vn 0.371812 0.236663 -0.897634
vn 0.371812 0.236663 -0.897634
vn 0.371812 0.236663 -0.897634
vn -0.371812 0.236663 -0.897634
vn -0.371812 0.236663 -0.897634
vn -0.371812 0.236663 -0.897634
vn -0.371812 0.236663 -0.897634
vn -0.897634 0.236663 -0.371812
vn -0.897634 0.236663 -0.371812
vn -0.897634 0.236663 -0.371812
vn -0.897634 0.236663 -0.371812
vn -0.897634 0.236663 0.371812
vn -0.897634 0.236663 0.371812
vn -0.897634 0.236663 0.371812
vn -0.897634 0.236663 0.371812
vn -0.371812 0.236663 0.897634
vn -0.371812 0.236663 0.897634
vn -0.371812 0.236663 0.897634
vn -0.371812 0.236663 0.897634
vn 0.371812 0.236663 0.897634
vn 0.371812 0.236663 0.897634
vn 0.371812 0.236663 0.897634
vn 0.371812 0.236663 0.897634
vn 0.897634 0.236663 0.371812
vn 0.897634 0.236663 0.371812
vn 0.897634 0.236663 0.371812
vn 0.897634 0.236663 0.371812
vn 0.897634 0.236663 -0.371812
vn 0.897634 0.236663 -0.371812
vn 0.897634 0.236663 -0.371812
vn 0.897634 0.236663 -0.371812
vn -0.372518 -0.228953 0.899339
vn -0.372518 -0.228953 0.899339
vn -0.372518 -0.228953 0.899339
vn -0.372518 -0.228953 0.899339
vn 0.372518 -0.228953 0.899339
vn 0.372518 -0.228953 0.899339
vn 0.372518 -0.228953 0.899339
vn 0.372518 -0.228953 0.899339
vn 0.899339 -0.228953 0.372518
vn 0.899339 -0.228953 0.372518
vn 0.899339 -0.228953 0.372518
vn 0.899339 -0.228953 0.372518
vn 0.899339 -0.228953 -0.372519
vn 0.899339 -0.228953 -0.372519
vn 0.899339 -0.228953 -0.372519
vn 0.899339 -0.228953 -0.372519
vn 0.372518 -0.228953 -0.899339
vn 0.372519 -0.228953 -0.899339
vn 0.372519 -0.228953 -0.899339
vn 0.372518 -0.228953 -0.899339
vn -0.372518 -0.228953 -0.899339
vn -0.372518 -0.228953 -0.899339
vn -0.372518 -0.228953 -0.899339
vn -0.372518 -0.228953 -0.899339
vn -0.899339 -0.228953 -0.372519
vn -0.899339 -0.228953 -0.372519
vn -0.899339 -0.228953 -0.372519
vn -0.899339 -0.228953 -0.372519
vn -0.899339 -0.228953 0.372519
vn -0.899339 -0.228953 0.372519
vn -0.899339 -0.228953 0.372519
vn -0.899339 -0.228953 0.372519
vn 0.249793 -0.935525 -0.249793
vn 0.000000 -0.935525 -0.353260
vn 0.000000 -0.935525 -0.353260
vn 0.249793 -0.935525 -0.249793
vn 0.000000 0.935528 0.353252
vn -0.249787 0.935529 0.249785
vn -0.249787 0.935529 0.249785
vn 0.000000 0.935528 0.353252
vn 0.000000 -0.935525 -0.353260
vn -0.249793 -0.935525 -0.249793
vn -0.249793 -0.935525 -0.249793
vn 0.000000 -0.935525 -0.353260
vn 0.249786 0.935528 0.249788
vn 0.000000 0.935528 0.353252
vn 0.000000 0.935528 0.353252
vn 0.249786 0.935528 0.249788
vn -0.249793 -0.935525 -0.249793
vn -0.353261 -0.935525 0.000000
vn -0.353261 -0.935525 0.000000
vn -0.249793 -0.935525 -0.249793
vn 0.353252 0.935528 0.000000
vn 0.249786 0.935528 0.249788
vn 0.249786 0.935528 0.249788
vn 0.353252 0.935528 0.000000
vn -0.353261 -0.935525 0.000000
vn -0.249793 -0.935525 0.249793
vn -0.249793 -0.935525 0.249793
vn -0.353261 -0.935525 0.000000
vn 0.249787 0.935528 -0.249787
vn 0.353252 0.935528 0.000000
vn 0.353252 0.935528 0.000000
vn 0.249787 0.935528 -0.249787
vn -0.249793 -0.935525 0.249793
vn 0.000000 -0.935525 0.353260
vn 0.000000 -0.935525 0.353260
vn -0.249793 -0.935525 0.249793
vn 0.000000 0.935529 -0.353250
vn 0.249787 0.935528 -0.249787
vn 0.249787 0.935528 -0.249787
vn 0.000000 0.935529 -0.353250
vn 0.000000 -0.935525 0.353260
vn 0.249793 -0.935525 0.249793
vn 0.249793 -0.935525 0.249793
vn 0.000000 -0.935525 0.353260
vn -0.249787 0.935529 -0.249785
vn 0.000000 0.935529 -0.353250
vn 0.000000 0.935529 -0.353250
vn -0.249787 0.935529 -0.249785
vn 0.249793 -0.935525 0.249793
vn 0.353261 -0.935525 0.000000
vn 0.353261 -0.935525 0.000000
vn 0.249793 -0.935525 0.249793
vn -0.353252 0.935528 -0.000001
vn -0.249787 0.935529 -0.249785
vn -0.249787 0.935529 -0.249785
vn -0.353252 0.935528 -0.000001
vn 0.353261 -0.935525 0.000000
vn 0.249793 -0.935525 -0.249793
vn 0.249793 -0.935525 -0.249793
vn 0.353261 -0.935525 0.000000
vn -0.249787 0.935529 0.249785
vn -0.353252 0.935528 -0.000001
vn -0.353252 0.935528 -0.000001
vn -0.249787 0.935529 0.249785
vn 0.000000 0.000000 1.000000
vn 0.000000 0.000000 1.000000
vn 0.000000 0.000000 1.000000
vn 0.000000 0.000000 1.000000
vn 0.000000 1.000000 0.000000
vn 0.000000 1.000000 0.000000
vn 0.000000 1.000000 0.000000
vn 0.000000 1.000000 0.000000
vn 0.000000 0.000000 -1.000000
vn 0.000000 0.000000 -1.000000
vn 0.000000 0.000000 -1.000000
vn 0.000000 0.000000 -1.000000
vn 0.000000 -1.000000 0.000000
vn 0.000000 -1.000000 0.000000
vn 0.000000 -1.000000 0.000000
vn 0.000000 -1.000000 0.000000
vn 1.000000 0.000000 0.000000
vn 1.000000 0.000000 0.000000
vn 1.000000 0.000000 0.000000
vn 1.000000 0.000000 0.000000
vn -1.000000 0.000000 0.000000
vn -1.000000 0.000000 0.000000
vn -1.000000 0.000000 0.000000
vn -1.000000 0.000000 0.000000
s off
g RoadBlock:Cone
usemtl lambert5SG
f 17/34/1 18/31/2 19/36/3 20/3/4
f 18/1/5 21/4/6 22/5/7 19/2/8
f 21/4/9 23/6/10 24/7/11 22/5/12
f 23/6/13 25/8/14 26/9/15 24/7/16
f 25/8/17 27/10/18 28/11/19 26/9/20
f 27/10/21 29/12/22 30/13/23 28/11/24
f 29/12/25 31/14/26 32/15/27 30/13/28
f 31/14/29 17/34/30 20/3/31 32/15/32
f 1/16/33 9/35/34 10/32/35 2/33/36
f 2/18/37 10/17/38 11/19/39 3/20/40
f 3/20/41 11/19/42 12/21/43 4/22/44
f 4/22/45 12/21/46 13/23/47 5/24/48
f 5/24/49 13/23/50 14/25/51 6/26/52
f 6/26/53 14/25/54 15/27/55 7/28/56
f 7/28/57 15/27/58 16/29/59 8/30/60
f 8/30/61 16/29/62 9/35/63 1/16/64
f 1/16/65 2/33/66 18/31/67 17/34/68
f 10/32/69 9/35/70 20/3/71 19/36/72
f 2/18/73 3/20/74 21/4/75 18/1/76
f 11/19/77 10/17/78 19/2/79 22/5/80
f 3/20/81 4/22/82 23/6/83 21/4/84
f 12/21/85 11/19/86 22/5/87 24/7/88
f 4/22/89 5/24/90 25/8/91 23/6/92
f 13/23/93 12/21/94 24/7/95 26/9/96
f 5/24/97 6/26/98 27/10/99 25/8/100
f 14/25/101 13/23/102 26/9/103 28/11/104
f 6/26/105 7/28/106 29/12/107 27/10/108
f 15/27/109 14/25/110 28/11/111 30/13/112
f 7/28/113 8/30/114 31/14/115 29/12/116
f 16/29/117 15/27/118 30/13/119 32/15/120
f 8/30/121 1/16/122 17/34/123 31/14/124
f 9/35/125 16/29/126 32/15/127 20/3/128
f 33/37/129 34/38/130 36/39/131 35/40/132
f 35/41/133 36/42/134 38/43/135 37/44/136
f 37/45/137 38/46/138 40/47/139 39/48/140
f 39/49/141 40/50/142 34/51/143 33/52/144
f 34/53/145 40/54/146 38/55/147 36/56/148
f 39/57/149 33/58/150 35/59/151 37/60/152
