# This file uses centimeters as units for non-parametric coordinates.

mtllib RoadTile.mtl
g default
v -17.500000 -0.500000 16.048928
v 17.500000 -0.500000 16.048928
v -17.500000 0.500000 16.048928
v 17.500000 0.500000 16.048928
v -17.500000 0.500000 -16.048928
v 17.500000 0.500000 -16.048928
v -17.500000 -0.500000 -16.048928
v 17.500000 -0.500000 -16.048928
v -12.500000 -0.500000 16.048928
v -12.500000 -0.500000 -16.048928
v -12.500000 0.500000 -16.048928
v -12.500000 0.500000 16.048928
v 12.500000 -0.500000 16.048928
v 12.500000 0.500000 16.048928
v 12.500000 0.500000 -16.048928
v 12.500000 -0.500000 -16.048928
vt 0.033531 0.769497
vt 0.175418 0.911384
vt 0.033531 0.911384
vt 0.033531 0.911384
vt 0.033531 0.769497
vt 0.175418 0.911384
vt 0.033531 0.911384
vt 0.175418 0.911384
vt 0.033531 0.911384
vt 0.033531 0.911384
vt 0.175418 0.769497
vt 0.175418 0.911384
vt 0.033531 0.769497
vt 0.033531 0.911384
vt 0.175418 0.769497
vt 0.175418 0.911384
vt 0.175418 0.911384
vt 0.175418 0.769497
vt 0.175418 0.911384
vt 0.175418 0.769497
vt 0.033531 0.769497
vt 0.033531 0.769497
vt 0.175418 0.769497
vt 0.175418 0.769497
vt 0.316986 0.871795
vt 0.316986 0.128205
vt 0.848122 0.128205
vt 0.848122 0.871795
vt 0.210759 0.128205
vt 0.210759 0.871795
vt 0.954349 0.128205
vt 0.954349 0.871795
vt 0.033531 0.769497
vt 0.175418 0.769497
vt 0.175418 0.911384
vt 0.033531 0.911384
vt 0.033531 0.769497
vt 0.175418 0.769497
vt 0.175418 0.911384
vt 0.033531 0.911384
vt 0.033531 0.769497
vt 0.175418 0.769497
vt 0.175418 0.911384
vt 0.033531 0.911384
vt 0.033531 0.769497
vt 0.033531 0.911384
vt 0.175418 0.769497
vt 0.175418 0.911384
vt 0.033531 0.769497
vt 0.175418 0.769497
vt 0.033531 0.769497
vt 0.033531 0.911384
vn 0.000000 0.000000 1.000000
vn 0.000000 0.000000 1.000000
vn 0.000000 0.000000 1.000000
vn 0.000000 0.000000 1.000000
vn 0.000000 1.000000 0.000000
vn 0.000000 1.000000 0.000000
vn 0.000000 1.000000 0.000000
vn 0.000000 1.000000 0.000000
vn 0.000000 0.000000 -1.000000
vn 0.000000 0.000000 -1.000000
vn 0.000000 0.000000 -1.000000
vn 0.000000 0.000000 -1.000000
vn 0.000000 -1.000000 0.000000
vn 0.000000 -1.000000 0.000000
vn 0.000000 -1.000000 0.000000
vn 0.000000 -1.000000 0.000000
vn 1.000000 0.000000 0.000000
vn 1.000000 0.000000 0.000000
vn 1.000000 0.000000 0.000000
vn 1.000000 0.000000 0.000000
vn -1.000000 0.000000 0.000000
vn -1.000000 0.000000 0.000000
vn -1.000000 0.000000 0.000000
vn -1.000000 0.000000 0.000000
vn 0.000000 -1.000000 0.000000
vn 0.000000 -1.000000 0.000000
vn 0.000000 0.000000 -1.000000
vn 0.000000 0.000000 -1.000000
vn 0.000000 1.000000 0.000000
vn 0.000000 1.000000 0.000000
vn 0.000000 0.000000 1.000000
vn 0.000000 0.000000 1.000000
vn 0.000000 0.000000 1.000000
vn 0.000000 0.000000 1.000000
vn 0.000000 1.000000 0.000000
vn 0.000000 1.000000 0.000000
vn 0.000000 0.000000 -1.000000
vn 0.000000 0.000000 -1.000000
vn 0.000000 -1.000000 0.000000
vn 0.000000 -1.000000 0.000000
s 1
g pCube1
usemtl lambert3SG
f 12/33/1 9/34/2 13/35/3 14/36/4
s 2
f 11/25/5 12/26/6 14/27/7 15/28/8
s 3
f 10/37/9 11/38/10 15/39/11 16/40/12
s 4
f 9/41/13 10/42/14 16/43/15 13/44/16
s off
f 2/45/17 8/11/18 6/12/19 4/46/20
f 7/13/21 1/47/22 3/48/23 5/14/24
s 4
f 7/49/25 10/50/14 9/16/13 1/9/26
s 3
f 5/5/27 11/18/10 10/17/9 7/7/28
s 2
f 3/29/29 12/26/6 11/25/5 5/30/30
s 1
f 1/1/31 9/15/2 12/19/1 3/3/32
f 14/22/4 13/20/3 2/2/33 4/4/34
s 2
f 15/28/8 14/27/7 4/31/35 6/32/36
s 3
f 16/51/12 15/23/11 6/6/37 8/52/38
s 4
f 13/21/16 16/24/15 8/8/39 2/10/40
