# This file uses centimeters as units for non-parametric coordinates.

mtllib StopSign.mtl
g default
v 5.643561 36.330986 0.728684
v -0.000000 38.668625 0.728684
v -5.643562 36.330986 0.728684
v -7.981201 30.687424 0.728684
v -5.643562 25.043861 0.728684
v -0.000000 22.706223 0.728684
v 5.643561 25.043861 0.728684
v 7.981201 30.687424 0.728684
v 5.643561 36.330986 1.271316
v -0.000000 38.668625 1.271316
v -5.643562 36.330986 1.271316
v -7.981201 30.687424 1.271316
v -5.643562 25.043861 1.271316
v -0.000000 22.706223 1.271316
v 5.643561 25.043861 1.271316
v 7.981201 30.687424 1.271316
v -0.000000 30.687424 0.728684
v -0.000000 30.687424 1.271316
v 0.548299 0.000000 -0.548299
v -0.000000 0.000000 -0.775412
v -0.548299 0.000000 -0.548299
v -0.775412 0.000000 0.000000
v -0.548299 0.000000 0.548299
v -0.000000 0.000000 0.775412
v 0.548299 0.000000 0.548299
v 0.775411 0.000000 0.000000
v 0.548299 27.374847 -0.548299
v -0.000000 27.374847 -0.775412
v -0.548299 27.374847 -0.548299
v -0.775412 27.374847 0.000000
v -0.548299 27.374847 0.548299
v -0.000000 27.374847 0.775412
v 0.548299 27.374847 0.548299
v 0.775411 27.374847 0.000000
v -0.000000 0.000000 0.000000
v -0.000000 27.374847 0.000000
vt 0.124782 0.242339
vt 0.193566 0.213848
vt 0.124782 0.145064
vt 0.055999 0.213848
vt 0.027507 0.145064
vt 0.055999 0.076281
vt 0.124782 0.047790
vt 0.193566 0.076281
vt 0.679572 0.171440
vt 0.689624 0.154028
vt 0.699677 0.136617
vt 0.709729 0.119205
vt 0.719782 0.101794
vt 0.729834 0.084382
vt 0.739887 0.066970
vt 0.749940 0.049559
vt 0.759992 0.032147
vt 0.889034 0.292373
vt 0.899086 0.274961
vt 0.909139 0.257550
vt 0.919191 0.240138
vt 0.929244 0.222727
vt 0.939297 0.205315
vt 0.949349 0.187903
vt 0.959402 0.170492
vt 0.969454 0.153080
vt 0.222057 0.145064
vt 0.767433 0.844962
vt 0.488387 0.960547
vt 0.488387 0.565917
vt 0.209342 0.844962
vt 0.093757 0.565917
vt 0.209342 0.286871
vt 0.488387 0.171287
vt 0.767433 0.286871
vt 0.883017 0.565917
vt 0.679572 0.171440
vt 0.689624 0.154028
vt 0.899086 0.274961
vt 0.889034 0.292373
vt 0.699677 0.136617
vt 0.909139 0.257550
vt 0.709729 0.119205
vt 0.919191 0.240138
vt 0.719782 0.101794
vt 0.929244 0.222727
vt 0.729834 0.084382
vt 0.939297 0.205315
vt 0.739887 0.066970
vt 0.949349 0.187903
vt 0.749940 0.049559
vt 0.959402 0.170492
vt 0.759992 0.032147
vt 0.969454 0.153080
vt 0.124782 0.246007
vt 0.196159 0.216441
vt 0.124782 0.145064
vt 0.053405 0.216441
vt 0.023840 0.145064
vt 0.053405 0.073687
vt 0.124782 0.044122
vt 0.196159 0.073687
vt 0.225725 0.145064
vt 0.196159 0.216441
vt 0.124782 0.246007
vt 0.124782 0.145064
vt 0.053405 0.216441
vt 0.023840 0.145064
vt 0.053405 0.073687
vt 0.124782 0.044122
vt 0.196159 0.073687
vt 0.225725 0.145064
vn 0.382683 0.923880 0.000000
vn 0.382683 0.923880 0.000000
vn 0.382683 0.923880 0.000000
vn 0.382683 0.923880 0.000000
vn -0.382683 0.923880 0.000000
vn -0.382683 0.923880 0.000000
vn -0.382683 0.923880 0.000000
vn -0.382683 0.923880 0.000000
vn -0.923880 0.382683 0.000000
vn -0.923880 0.382683 0.000000
vn -0.923880 0.382683 0.000000
vn -0.923880 0.382683 0.000000
vn -0.923880 -0.382683 0.000000
vn -0.923880 -0.382683 0.000000
vn -0.923880 -0.382683 0.000000
vn -0.923880 -0.382683 0.000000
vn -0.382683 -0.923880 0.000000
vn -0.382683 -0.923880 0.000000
vn -0.382683 -0.923880 0.000000
vn -0.382683 -0.923880 0.000000
vn 0.382683 -0.923880 0.000000
vn 0.382683 -0.923880 0.000000
vn 0.382683 -0.923880 0.000000
vn 0.382683 -0.923880 0.000000
vn 0.923880 -0.382683 0.000000
vn 0.923880 -0.382683 0.000000
vn 0.923880 -0.382683 0.000000
vn 0.923880 -0.382683 0.000000
vn 0.923880 0.382684 0.000000
vn 0.923880 0.382684 0.000000
vn 0.923880 0.382684 0.000000
vn 0.923880 0.382684 0.000000
vn 0.000000 0.000000 -1.000000
vn 0.000000 0.000000 -1.000000
vn 0.000000 0.000000 -1.000000
vn -0.000000 0.000000 -1.000000
vn 0.000000 0.000000 -1.000000
vn -0.000000 0.000000 -1.000000
vn 0.000000 0.000000 -1.000000
vn 0.000000 0.000000 -1.000000
vn 0.000000 0.000000 -1.000000
vn 0.000000 0.000000 1.000000
vn 0.000000 0.000000 1.000000
vn 0.000000 0.000000 1.000000
vn 0.000000 0.000000 1.000000
vn 0.000000 0.000000 1.000000
vn -0.000000 0.000000 1.000000
vn -0.000000 0.000000 1.000000
vn 0.000000 0.000000 1.000000
vn 0.000000 0.000000 1.000000
vn 0.382683 0.000000 -0.923880
vn 0.382683 0.000000 -0.923880
vn 0.382683 0.000000 -0.923880
vn 0.382683 0.000000 -0.923880
vn -0.382683 0.000000 -0.923880
vn -0.382683 0.000000 -0.923880
vn -0.382683 0.000000 -0.923880
vn -0.382683 0.000000 -0.923880
vn -0.923880 0.000000 -0.382683
vn -0.923880 0.000000 -0.382683
vn -0.923880 0.000000 -0.382683
vn -0.923880 0.000000 -0.382683
vn -0.923880 0.000000 0.382683
vn -0.923880 0.000000 0.382683
vn -0.923880 0.000000 0.382683
vn -0.923880 0.000000 0.382683
vn -0.382683 0.000000 0.923880
vn -0.382683 0.000000 0.923880
vn -0.382683 0.000000 0.923880
vn -0.382683 0.000000 0.923880
vn 0.382683 0.000000 0.923880
vn 0.382683 0.000000 0.923880
vn 0.382683 0.000000 0.923880
vn 0.382683 0.000000 0.923880
vn 0.923880 0.000000 0.382683
vn 0.923880 0.000000 0.382683
vn 0.923880 0.000000 0.382683
vn 0.923880 0.000000 0.382683
vn 0.923880 0.000000 -0.382684
vn 0.923880 0.000000 -0.382684
vn 0.923880 0.000000 -0.382684
vn 0.923880 0.000000 -0.382684
vn 0.000000 -1.000000 0.000000
vn 0.000000 -1.000000 0.000000
vn 0.000000 -1.000000 0.000000
vn 0.000000 -1.000000 0.000000
vn 0.000000 -1.000000 0.000000
vn 0.000000 -1.000000 0.000000
vn 0.000000 -1.000000 0.000000
vn 0.000000 -1.000000 0.000000
vn 0.000000 -1.000000 0.000000
vn 0.000000 1.000000 0.000000
vn 0.000000 1.000000 0.000000
vn 0.000000 1.000000 0.000000
vn 0.000000 1.000000 -0.000004
vn 0.000000 1.000000 0.000000
vn 0.000000 1.000000 0.000004
vn 0.000000 1.000000 0.000000
vn 0.000000 1.000000 0.000000
vn 0.000000 1.000000 0.000000
s off
g RoundSign
usemtl lambert8SG
f 1/9/1 2/10/2 10/19/3 9/18/4
f 2/10/5 3/11/6 11/20/7 10/19/8
f 3/11/9 4/12/10 12/21/11 11/20/12
f 4/12/13 5/13/14 13/22/15 12/21/16
f 5/13/17 6/14/18 14/23/19 13/22/20
f 6/14/21 7/15/22 15/24/23 14/23/24
f 7/15/25 8/16/26 16/25/27 15/24/28
f 8/16/29 1/17/30 9/26/31 16/25/32
s 1
f 2/1/33 1/2/34 17/3/35
f 3/4/36 2/1/33 17/3/35
f 4/5/37 3/4/36 17/3/35
f 5/6/38 4/5/37 17/3/35
f 6/7/39 5/6/38 17/3/35
f 7/8/40 6/7/39 17/3/35
f 8/27/41 7/8/40 17/3/35
f 1/2/34 8/27/41 17/3/35
s 2
f 9/28/42 10/29/43 18/30/44
f 10/29/43 11/31/45 18/30/44
f 11/31/45 12/32/46 18/30/44
f 12/32/46 13/33/47 18/30/44
f 13/33/47 14/34/48 18/30/44
f 14/34/48 15/35/49 18/30/44
f 15/35/49 16/36/50 18/30/44
f 16/36/50 9/28/42 18/30/44
s off
f 19/37/51 20/38/52 28/39/53 27/40/54
f 20/38/55 21/41/56 29/42/57 28/39/58
f 21/41/59 22/43/60 30/44/61 29/42/62
f 22/43/63 23/45/64 31/46/65 30/44/66
f 23/45/67 24/47/68 32/48/69 31/46/70
f 24/47/71 25/49/72 33/50/73 32/48/74
f 25/49/75 26/51/76 34/52/77 33/50/78
f 26/51/79 19/53/80 27/54/81 34/52/82
s 3
f 20/55/83 19/56/84 35/57/85
f 21/58/86 20/55/83 35/57/85
f 22/59/87 21/58/86 35/57/85
f 23/60/88 22/59/87 35/57/85
f 24/61/89 23/60/88 35/57/85
f 25/62/90 24/61/89 35/57/85
f 26/63/91 25/62/90 35/57/85
f 19/56/84 26/63/91 35/57/85
s 4
f 27/64/92 28/65/93 36/66/94
f 28/65/93 29/67/95 36/66/94
f 29/67/95 30/68/96 36/66/94
f 30/68/96 31/69/97 36/66/94
f 31/69/97 32/70/98 36/66/94
f 32/70/98 33/71/99 36/66/94
f 33/71/99 34/72/100 36/66/94
f 34/72/100 27/64/92 36/66/94
